# xmcd CD database file
#
# Track frame offsets:
#	150
#	13675
#	26160
#	44165
#	59742
#	75660
#	93050
#	105537
#	120770
#	137197
#	150615
#	166640
#	181352
#	194710
#	215605
#
# Disc length: 3095 seconds
#
# Revision: 0
# Processed by: cddbd v1.5.2PL0 Copyright (c) Steve Scherf et al.
# Submitted via: CDex 1.70beta2
#
DISCID=ca0c150f
DTITLE=Roberta Miranda - Roberta Miranda
DYEAR=1900
DGENRE=Country
TTITLE0=São Tantas Coisa
TTITLE1=Rei dos Reis
TTITLE2=Benvinda
TTITLE3=Esperança
TTITLE4=Meu Dengo
TTITLE5=Vamos Falar de Nós
TTITLE6=Dói
TTITLE7=Que Amor é Esse
TTITLE8=Amor Platônico
TTITLE9=Onde Andará
TTITLE10=Velhos Tempos
TTITLE11=Não se Avexe Não
TTITLE12=Chuva de Amor
TTITLE13=Luar do Sertão
TTITLE14=Vá Com Deus
EXTD=
EXTT0=
EXTT1=
EXTT2=
EXTT3=
EXTT4=
EXTT5=
EXTT6=
EXTT7=
EXTT8=
EXTT9=
EXTT10=
EXTT11=
EXTT12=
EXTT13=
EXTT14=
PLAYORDER=
